<?xml version="1.0" standalone="no"?>
<!DOCTYPE svg PUBLIC "-//W3C//DTD SVG 20010904//EN"
 "http://www.w3.org/TR/2001/REC-SVG-20010904/DTD/svg10.dtd">
<svg version="1.0" xmlns="http://www.w3.org/2000/svg"
 width="300.000000pt" height="300.000000pt" viewBox="0 0 300.000000 300.000000"
 preserveAspectRatio="xMidYMid meet">
<metadata>
Created by potrace 1.14, written by Peter Selinger 2001-2017
</metadata>
<g transform="translate(0.000000,300.000000) scale(0.100000,-0.100000)"
fill="#000000" stroke="none">
<path d="M1350 1735 c-19 -19 -39 -35 -44 -35 -51 -1 -197 -107 -300 -218 -37
-40 -43 -43 -75 -37 -20 4 -235 54 -479 111 -243 57 -445 104 -447 104 -3 0
-5 -6 -5 -14 0 -8 14 -17 32 -21 50 -11 827 -194 871 -206 29 -8 37 -15 37
-32 0 -12 7 -33 16 -45 12 -18 25 -22 66 -22 28 0 75 8 105 17 l53 17 163 -38
c89 -21 170 -40 180 -42 11 -4 17 -15 17 -34 0 -59 62 -74 170 -41 46 14 69
17 93 10 57 -16 1176 -279 1190 -279 18 0 5 28 -15 33 -13 3 -249 58 -525 123
-487 114 -502 118 -508 143 -4 14 -22 57 -41 96 -34 70 -34 71 -19 120 16 54
20 141 7 149 -5 3 -32 -3 -60 -14 l-51 -20 -63 33 c-35 18 -105 49 -157 68
-75 27 -99 41 -123 72 -16 20 -35 37 -42 37 -7 0 -27 -16 -46 -35z m74 -24
c23 -32 40 -43 104 -66 42 -15 115 -45 162 -67 80 -38 87 -40 128 -29 23 6 46
11 50 11 10 0 -1 -87 -16 -137 -9 -28 -5 -42 29 -110 43 -87 47 -107 22 -99
-111 34 -133 36 -184 16 -27 -11 -72 -20 -99 -20 -40 0 -50 4 -55 20 -4 13 0
31 10 46 18 28 14 43 -7 27 -9 -7 -71 4 -198 33 l-185 44 -67 -20 c-106 -32
-148 -26 -148 21 0 23 19 47 91 120 99 98 171 150 238 170 27 8 52 25 68 46
14 18 26 33 28 33 1 0 14 -18 29 -39z"/>
<path d="M1247 1513 c-4 -3 -7 -17 -7 -30 0 -27 30 -32 50 -8 20 24 -21 61
-43 38z"/>
<path d="M1316 1456 c6 -16 100 -50 114 -41 16 10 11 25 -8 25 -10 0 -22 4
-27 9 -6 5 -27 12 -47 15 -31 6 -37 4 -32 -8z"/>
<path d="M1540 1405 c-11 -13 -11 -18 2 -31 20 -20 50 -7 46 20 -4 26 -30 32
-48 11z"/>
</g>
</svg>
